<?xml version="1.0" encoding="UTF-8" standalone="no"?>
<svg
   width="300"
   height="188.96626"
   viewBox="0 0 299.99999 188.96626"
   version="1.1"
   id="svg1"
   sodipodi:docname="moc_logo_light.svg"
   inkscape:version="1.3.2 (091e20e, 2023-11-25, custom)"
   xmlns:inkscape="http://www.inkscape.org/namespaces/inkscape"
   xmlns:sodipodi="http://sodipodi.sourceforge.net/DTD/sodipodi-0.dtd"
   xmlns="http://www.w3.org/2000/svg"
   xmlns:svg="http://www.w3.org/2000/svg">
  <defs
     id="defs1">
    <clipPath
       id="clip-path">
      <rect
         width="98.802002"
         height="62.201"
         fill="none"
         x="0"
         y="0" />
    </clipPath>
  </defs>
  <g
     id="g1"
     transform="matrix(3.0394026,0,0,3.0394026,-0.15121678,-0.08744712)">
    <path
       d="m 4.64,37.018 -0.883,-0.9 -0.882,0.9 0.882,0.9 z"
       fill="#0f2837" />
    <path
       d="m 2.557,37.018 -0.883,-0.9 -0.883,0.9 0.883,0.9 z"
       fill="#0f2837" />
    <path
       d="m 19.472,36.946 -0.882,-0.9 -0.883,0.9 0.883,0.9 z"
       fill="#0f2837" />
    <g>
      <g
         clip-path="url(#clip-path)">
        <path
           d="m 20.356,89.658 a 1.831,1.831 0 0 0 -2.541,-0.933 2.125,2.125 0 0 0 -0.691,0.569 2.842,2.842 0 0 0 -0.463,0.855 3.152,3.152 0 0 0 -0.171,1.047 2.1,2.1 0 0 0 0.534,1.531 1.959,1.959 0 0 0 1.473,0.548 2.488,2.488 0 0 0 0.8,-0.127 2.16,2.16 0 0 0 0.663,-0.356 v 1 q 0,0.285 -0.94,0.427 c -0.627,0.1 -11.324,0.142 -12.558,0.142 H 6.14 a 1.562,1.562 0 0 1 -1.012,-0.263 1.052,1.052 0 0 1 -0.3,-0.876 l 0.057,-4.827 -1.125,0.2 v 0.869 a 6.3,6.3 0 0 0 -2.684,1.125 2.315,2.315 0 0 0 -0.96,1.866 1.751,1.751 0 0 0 0.684,1.418 2.244,2.244 0 0 0 0.732,0.37 3.076,3.076 0 0 0 0.9,0.128 2.8,2.8 0 0 0 1.41,-0.342 q 0.241,1.61 2.293,1.609 h 0.328 c 0.5,0 10.711,-0.007 11.091,-0.021 0.38,-0.014 0.717,-0.04 1.012,-0.078 a 6.939,6.939 0 0 0 0.761,-0.136 3.045,3.045 0 0 0 0.591,-0.206 1.53,1.53 0 0 0 0.783,-0.748 3.53,3.53 0 0 0 0.227,-1.431 7.667,7.667 0 0 0 -0.577,-3.36 m -1.011,2.435 a 2.611,2.611 0 0 1 -0.719,0.1 1.383,1.383 0 0 1 -0.918,-0.271 0.984,0.984 0 0 1 -0.32,-0.8 1.47,1.47 0 0 1 0.356,-1 1.13,1.13 0 0 1 0.883,-0.406 0.971,0.971 0 0 1 0.876,0.5 3.867,3.867 0 0 1 0.406,1.608 1.593,1.593 0 0 1 -0.562,0.271 M 2.608,93.133 A 3.277,3.277 0 0 1 2.032,93.083 1.82,1.82 0 0 1 1.541,92.927 0.888,0.888 0 0 1 1.206,92.649 0.713,0.713 0 0 1 1.084,92.222 a 0.878,0.878 0 0 1 0.222,-0.577 2.058,2.058 0 0 1 0.6,-0.47 4.042,4.042 0 0 1 0.862,-0.341 6.163,6.163 0 0 1 1.011,-0.193 L 3.8,92.933 a 3.283,3.283 0 0 1 -1.2,0.2"
           transform="translate(-0.066,-49.536)"
           fill="#0f2837" />
        <path
           d="m 83.441,86.34 -0.882,-0.9 -0.883,0.9 0.883,0.9 z"
           transform="translate(-45.773,-47.884)"
           fill="#0f2837" />
        <path
           d="m 88.17,86.34 -0.882,-0.9 -0.883,0.9 0.883,0.9 z"
           transform="translate(-48.423,-47.884)"
           fill="#0f2837" />
        <path
           d="m 121.243,85.821 -0.883,-0.9 -0.882,0.9 0.882,0.9 z"
           transform="translate(-66.958,-47.594)"
           fill="#0f2837" />
        <path
           d="m 122.724,90.9 0.883,-0.9 -0.883,-0.9 -0.882,0.9 z"
           transform="translate(-68.283,-49.936)"
           fill="#0f2837" />
        <path
           d="M 118.878,90 118,89.1 117.118,90 118,90.9 Z"
           transform="translate(-65.633,-49.936)"
           fill="#0f2837" />
        <path
           d="m 95.591,84.184 0.042,6.978 a 0.455,0.455 0 0 1 -0.149,0.342 1.085,1.085 0 0 1 -0.385,0.228 2.376,2.376 0 0 1 -0.533,0.121 c -0.2,0.024 -10.149,0.035 -10.365,0.035 q -1.695,0 -1.695,-0.883 c 0,-0.075 0.019,-0.28 0.056,-0.612 0.037,-0.332 0.081,-0.7 0.129,-1.1 l -0.969,-0.114 c -0.019,0.124 -0.037,0.266 -0.056,0.428 -0.019,0.162 -0.043,0.322 -0.071,0.484 -0.028,0.162 -0.057,0.32 -0.085,0.477 -0.028,0.157 -0.053,0.287 -0.072,0.392 a 0.988,0.988 0 0 1 -0.562,0.712 c -0.3,0.142 -10.513,0.213 -11.139,0.213 v 0 c -0.284,0 -0.556,0 -0.812,-0.014 -0.256,-0.014 -0.494,-0.024 -0.712,-0.043 a 2.292,2.292 0 0 0 0.74,-1.737 2.733,2.733 0 0 0 -0.178,-0.99 2.592,2.592 0 0 0 -0.484,-0.8 2.313,2.313 0 0 0 -0.712,-0.541 1.96,1.96 0 0 0 -1.723,0 2.33,2.33 0 0 0 -0.712,0.541 2.591,2.591 0 0 0 -0.484,0.8 2.732,2.732 0 0 0 -0.177,0.99 2.259,2.259 0 0 0 0.74,1.737 q -0.342,0.028 -0.727,0.043 c -0.256,0.01 -10.289,0.014 -10.564,0.014 a 1.53,1.53 0 0 1 -1,-0.263 1.1,1.1 0 0 1 -0.306,-0.876 l 0.057,-6.764 -1.125,0.2 0.057,6.992 q 0.03,1.993 2.321,1.993 c 0.531,0 10.821,-0.042 11.333,-0.127 a 8.538,8.538 0 0 0 1.453,-0.371 8.559,8.559 0 0 0 1.452,0.371 9.534,9.534 0 0 0 1.567,0.127 c 0.6,0 10.88,-0.083 11.313,-0.249 a 1.823,1.823 0 0 0 0.933,-0.7 2.352,2.352 0 0 0 2.22,0.954 v 0 c 0.354,0 10.438,-0.035 10.756,-0.107 a 2.547,2.547 0 0 0 0.854,-0.356 1.937,1.937 0 0 0 0.612,-0.655 1.969,1.969 0 0 0 0.235,-1 l 0.058,-7.063 z m -28.875,7.362 q -1.31,-0.427 -1.31,-1.41 a 1.358,1.358 0 0 1 0.377,-0.954 1.232,1.232 0 0 1 0.42,-0.285 1.366,1.366 0 0 1 1.025,0 1.222,1.222 0 0 1 0.42,0.285 1.347,1.347 0 0 1 0.378,0.954 q 0,0.982 -1.31,1.41"
           transform="translate(-28.891,-47.067)"
           fill="#0f2837" />
        <path
           d="m 158.448,93.169 -0.071,-8.985 1.125,-0.2 -0.071,9.185 z"
           transform="translate(-88.758,-47.067)"
           fill="#0f2837" />
        <path
           d="m 175.274,91.851 a 2.113,2.113 0 0 1 -0.655,1.63 2.545,2.545 0 0 1 -1.794,0.605 2.581,2.581 0 0 1 -1.837,-0.591 2.226,2.226 0 0 1 -0.627,-1.7 4.264,4.264 0 0 1 0.2,-1.317 3.952,3.952 0 0 1 0.534,-1.09 2.631,2.631 0 0 1 0.784,-0.74 1.8,1.8 0 0 1 0.946,-0.271 1.832,1.832 0 0 1 0.961,0.271 2.541,2.541 0 0 1 0.776,0.74 3.869,3.869 0 0 1 0.52,1.1 4.638,4.638 0 0 1 0.193,1.36 m -3.5,-4.614 -0.882,-0.9 0.882,-0.9 0.883,0.9 z m 2.535,4.742 a 3.726,3.726 0 0 0 -0.107,-0.919 2.418,2.418 0 0 0 -0.306,-0.726 1.568,1.568 0 0 0 -0.47,-0.477 1.1,1.1 0 0 0 -0.6,-0.171 1.2,1.2 0 0 0 -0.576,0.149 1.5,1.5 0 0 0 -0.478,0.406 2.108,2.108 0 0 0 -0.32,0.6 2.164,2.164 0 0 0 -0.121,0.727 1.147,1.147 0 0 0 0.384,0.932 1.694,1.694 0 0 0 1.111,0.32 2.437,2.437 0 0 0 0.569,-0.064 1.588,1.588 0 0 0 0.47,-0.185 1.223,1.223 0 0 0 0.321,-0.27 0.5,0.5 0 0 0 0.121,-0.32 m -0.456,-4.742 -0.883,-0.9 0.883,-0.9 0.883,0.9 z"
           transform="translate(-95.474,-47.884)"
           fill="#0f2837" />
        <path
           d="m 180.627,100.247 a 9.733,9.733 0 0 0 1.424,-0.655 7.294,7.294 0 0 0 1.133,-0.775 4.006,4.006 0 0 0 0.746,-0.817 1.406,1.406 0 0 0 0.271,-0.776 2.258,2.258 0 0 0 -0.1,-0.584 6.508,6.508 0 0 0 -0.277,-0.775 q -0.179,-0.421 -0.42,-0.877 -0.241,-0.456 -0.513,-0.882 l 1.025,-0.57 a 6.533,6.533 0 0 1 0.939,1.766 5.434,5.434 0 0 1 0.343,1.808 3.568,3.568 0 0 1 -1.025,2.456 7.2,7.2 0 0 1 -2.892,1.8 z"
           transform="translate(-101.228,-52.422)"
           fill="#0f2837" />
        <path
           d="m 195.407,93.169 -0.071,-8.985 1.125,-0.2 -0.071,9.185 z"
           transform="translate(-109.471,-47.067)"
           fill="#0f2837" />
        <path
           d="m 199.514,96.49 a 9.777,9.777 0 0 0 1.424,-0.655 7.32,7.32 0 0 0 1.132,-0.776 4.025,4.025 0 0 0 0.747,-0.812 1.4,1.4 0 0 0 0.27,-0.776 2.272,2.272 0 0 0 -0.1,-0.584 6.526,6.526 0 0 0 -0.277,-0.775 q -0.178,-0.421 -0.42,-0.877 -0.242,-0.456 -0.513,-0.882 l 1.025,-0.57 a 6.551,6.551 0 0 1 0.94,1.766 5.454,5.454 0 0 1 0.342,1.808 3.562,3.562 0 0 1 -1.025,2.456 7.205,7.205 0 0 1 -2.891,1.8 z m 2.607,-7.86 -0.883,-0.9 0.883,-0.9 0.882,0.9 z"
           transform="translate(-111.812,-48.665)"
           fill="#0f2837" />
        <path
           d="m 214.158,99.86 q 3.077,-0.428 3.546,-2.235 a 2.1,2.1 0 0 1 -0.663,0.327 2.75,2.75 0 0 1 -0.8,0.114 1.9,1.9 0 0 1 -1.51,-0.655 2.53,2.53 0 0 1 -0.57,-1.723 3.43,3.43 0 0 1 0.171,-1.1 2.808,2.808 0 0 1 0.47,-0.876 2.128,2.128 0 0 1 0.712,-0.576 1.98,1.98 0 0 1 0.9,-0.207 1.933,1.933 0 0 1 1.73,1 5.391,5.391 0 0 1 0.62,2.826 4.191,4.191 0 0 1 -0.292,1.581 3.966,3.966 0 0 1 -0.826,1.281 4.41,4.41 0 0 1 -1.289,0.918 5.64,5.64 0 0 1 -1.68,0.491 z m 2.264,-2.947 a 2.652,2.652 0 0 0 0.776,-0.114 1.755,1.755 0 0 0 0.592,-0.284 3.838,3.838 0 0 0 -0.42,-1.737 1.159,1.159 0 0 0 -1.909,-0.2 1.616,1.616 0 0 0 -0.349,1.082 1.2,1.2 0 0 0 0.349,0.926 1.345,1.345 0 0 0 0.961,0.327"
           transform="translate(-120.019,-52.078)"
           fill="#0f2837" />
        <path
           d="m 0.505,116.4 h 1.156 l 2.549,4.357 2.55,-4.357 h 1.129 l 0.389,8.375 H 7.1 L 6.824,118.346 4.461,122.3 h -0.6 L 1.539,118.4 1.25,124.779 H 0.116 Z"
           transform="translate(-0.065,-65.231)"
           fill="#0f2837" />
        <path
           d="m 22.212,116.312 0.9,0.9 -0.9,0.9 -0.9,-0.9 z m -0.558,2.573 h 1.129 v 5.839 h -1.129 z"
           transform="translate(-11.945,-65.184)"
           fill="#0f2837" />
        <path
           d="m 28.294,127.828 v -5.468 c 0,-0.08 0,-0.2 -0.013,-0.371 h 1.08 l 0.039,0.879 q 0.113,-0.15 0.276,-0.332 a 1.854,1.854 0 0 1 0.4,-0.332 2.328,2.328 0 0 1 0.558,-0.251 2.416,2.416 0 0 1 0.722,-0.1 2.081,2.081 0 0 1 1.7,0.665 2.758,2.758 0 0 1 0.552,1.808 v 3.5 h -1.134 v -3.416 a 1.731,1.731 0 0 0 -0.351,-1.2 1.28,1.28 0 0 0 -0.992,-0.382 1.466,1.466 0 0 0 -1.336,0.721 2.29,2.29 0 0 0 -0.283,0.728 3.943,3.943 0 0 0 -0.087,0.835 v 2.713 z"
           transform="translate(-15.849,-68.289)"
           fill="#0f2837" />
        <path
           d="m 43.638,116.312 0.9,0.9 -0.9,0.9 -0.9,-0.9 z m -0.557,2.573 h 1.129 v 5.839 h -1.129 z"
           transform="translate(-23.954,-65.184)"
           fill="#0f2837" />
        <path
           d="m 49.486,126.295 a 2.385,2.385 0 0 0 0.754,0.5 2.562,2.562 0 0 0 1.016,0.188 2.161,2.161 0 0 0 0.943,-0.182 0.6,0.6 0 0 0 0.377,-0.571 0.7,0.7 0 0 0 -0.081,-0.346 0.738,0.738 0 0 0 -0.277,-0.257 2.372,2.372 0 0 0 -0.514,-0.207 c -0.214,-0.063 -0.48,-0.132 -0.8,-0.207 a 4.851,4.851 0 0 1 -0.672,-0.2 2.217,2.217 0 0 1 -0.6,-0.333 1.614,1.614 0 0 1 -0.427,-0.5 1.446,1.446 0 0 1 -0.163,-0.709 1.4,1.4 0 0 1 0.195,-0.748 1.731,1.731 0 0 1 0.52,-0.54 2.521,2.521 0 0 1 0.736,-0.333 3.151,3.151 0 0 1 0.847,-0.113 3.712,3.712 0 0 1 1.274,0.195 2.943,2.943 0 0 1 0.937,0.546 l -0.616,0.778 a 2.269,2.269 0 0 0 -0.659,-0.4 2.411,2.411 0 0 0 -0.923,-0.164 1.821,1.821 0 0 0 -0.866,0.177 0.6,0.6 0 0 0 -0.327,0.577 0.6,0.6 0 0 0 0.44,0.554 7.252,7.252 0 0 0 1.135,0.346 7.069,7.069 0 0 1 0.772,0.232 2.377,2.377 0 0 1 0.629,0.339 1.534,1.534 0 0 1 0.427,0.509 1.577,1.577 0 0 1 0.156,0.728 1.462,1.462 0 0 1 -0.2,0.772 1.775,1.775 0 0 1 -0.539,0.559 2.564,2.564 0 0 1 -0.778,0.339 3.707,3.707 0 0 1 -0.917,0.113 3.236,3.236 0 0 1 -2.486,-0.891 z"
           transform="translate(-27.346,-68.224)"
           fill="#0f2837" />
        <path
           d="m 62.788,120.674 h -1.055 v -0.942 h 1.055 v -1.909 h 1.129 v 1.909 h 1.708 v 0.942 h -1.708 v 2.875 a 1.562,1.562 0 0 0 0.22,0.967 0.764,0.764 0 0 0 0.622,0.263 1.267,1.267 0 0 0 0.539,-0.1 1.685,1.685 0 0 0 0.428,-0.3 l 0.515,0.691 a 2.42,2.42 0 0 1 -0.748,0.509 2.39,2.39 0 0 1 -0.909,0.157 1.7,1.7 0 0 1 -1.362,-0.5 2.358,2.358 0 0 1 -0.434,-1.57 z"
           transform="translate(-34.597,-66.031)"
           fill="#0f2837" />
        <path
           d="m 74.17,127.892 v -5.474 c 0,-0.075 0,-0.2 -0.013,-0.364 h 1.08 l 0.039,0.942 a 3.032,3.032 0 0 1 0.263,-0.333 1.98,1.98 0 0 1 0.4,-0.333 2.489,2.489 0 0 1 0.541,-0.257 2.148,2.148 0 0 1 0.708,-0.107 2.208,2.208 0 0 1 0.346,0.025 1.68,1.68 0 0 1 0.3,0.076 l -0.252,1.054 a 1.618,1.618 0 0 0 -0.577,-0.088 1.635,1.635 0 0 0 -0.672,0.138 1.594,1.594 0 0 0 -0.532,0.384 1.852,1.852 0 0 0 -0.49,1.262 v 3.076 z"
           transform="translate(-41.559,-68.353)"
           fill="#0f2837" />
        <path
           d="m 84.217,129.435 a 1.479,1.479 0 0 0 0.288,0.2 0.846,0.846 0 0 0 0.4,0.088 0.652,0.652 0 0 0 0.345,-0.088 0.856,0.856 0 0 0 0.265,-0.27 2.692,2.692 0 0 0 0.225,-0.439 c 0.072,-0.172 0.153,-0.37 0.245,-0.6 l 0.15,-0.376 -2.611,-5.788 h 1.296 l 1.882,4.407 1.659,-4.407 h 1.229 l -2.335,5.688 q -0.163,0.4 -0.333,0.885 a 5.407,5.407 0 0 1 -0.422,0.917 2.54,2.54 0 0 1 -0.614,0.723 1.435,1.435 0 0 1 -0.917,0.289 2,2 0 0 1 -0.74,-0.12 1.776,1.776 0 0 1 -0.527,-0.32 z"
           transform="translate(-46.81,-68.464)"
           fill="#0f2837" />
        <path
           d="m 106.043,127.939 a 3.089,3.089 0 0 1 -1.243,-0.245 2.937,2.937 0 0 1 -0.973,-0.672 3.149,3.149 0 0 1 -0.64,-0.986 3.2,3.2 0 0 1 0,-2.4 3.154,3.154 0 0 1 0.64,-0.986 2.963,2.963 0 0 1 0.973,-0.672 3.247,3.247 0 0 1 2.474,0 3.038,3.038 0 0 1 0.979,0.672 3.143,3.143 0 0 1 0,4.369 3.01,3.01 0 0 1 -0.979,0.672 3.06,3.06 0 0 1 -1.231,0.245 m 0,-0.979 a 1.807,1.807 0 0 0 0.817,-0.182 1.929,1.929 0 0 0 0.615,-0.477 2.08,2.08 0 0 0 0.383,-0.678 2.4,2.4 0 0 0 0.132,-0.785 2.374,2.374 0 0 0 -0.132,-0.773 2.113,2.113 0 0 0 -0.389,-0.684 2,2 0 0 0 -0.616,-0.484 1.758,1.758 0 0 0 -0.81,-0.182 1.793,1.793 0 0 0 -0.815,0.182 1.941,1.941 0 0 0 -0.616,0.477 2.084,2.084 0 0 0 -0.383,0.678 2.409,2.409 0 0 0 -0.132,0.785 2.351,2.351 0 0 0 0.132,0.778 2.094,2.094 0 0 0 0.389,0.678 1.965,1.965 0 0 0 0.615,0.484 1.759,1.759 0 0 0 0.809,0.182"
           transform="translate(-57.698,-68.224)"
           fill="#0f2837" />
        <path
           d="m 119.577,119.6 h -1.055 v -0.942 h 1.055 v -0.477 a 2.8,2.8 0 0 1 0.169,-1.024 2.011,2.011 0 0 1 0.451,-0.71 1.776,1.776 0 0 1 0.648,-0.407 2.207,2.207 0 0 1 0.766,-0.132 2.959,2.959 0 0 1 0.911,0.144 2.187,2.187 0 0 1 0.821,0.5 l -0.565,0.728 a 1.52,1.52 0 0 0 -0.992,-0.389 1.025,1.025 0 0 0 -0.785,0.314 1.567,1.567 0 0 0 -0.3,1.08 v 0.377 h 1.67 v 0.942 h -1.67 v 4.9 h -1.129 z"
           transform="translate(-66.422,-64.959)"
           fill="#0f2837" />
        <path
           d="m 142.5,123.046 a 2.937,2.937 0 0 1 -0.428,0.515 3.91,3.91 0 0 1 -0.7,0.546 4.308,4.308 0 0 1 -0.954,0.433 3.831,3.831 0 0 1 -1.193,0.176 4.293,4.293 0 0 1 -1.7,-0.327 3.9,3.9 0 0 1 -1.317,-0.91 4.149,4.149 0 0 1 -0.86,-1.381 5.014,5.014 0 0 1 0,-3.459 4.338,4.338 0 0 1 0.86,-1.406 3.984,3.984 0 0 1 1.324,-0.949 4.156,4.156 0 0 1 1.715,-0.345 4.013,4.013 0 0 1 1.193,0.164 3.957,3.957 0 0 1 0.922,0.407 3.536,3.536 0 0 1 0.678,0.534 3.984,3.984 0 0 1 0.459,0.553 l -0.855,0.728 a 5.025,5.025 0 0 0 -0.357,-0.446 2.505,2.505 0 0 0 -0.5,-0.421 2.946,2.946 0 0 0 -0.665,-0.314 2.765,2.765 0 0 0 -0.866,-0.125 2.751,2.751 0 0 0 -2.156,0.981 3.163,3.163 0 0 0 -0.584,1.055 4.011,4.011 0 0 0 -0.2,1.28 3.832,3.832 0 0 0 0.207,1.274 3.144,3.144 0 0 0 0.584,1.037 2.68,2.68 0 0 0 0.916,0.691 2.828,2.828 0 0 0 1.206,0.251 2.924,2.924 0 0 0 0.973,-0.144 2.811,2.811 0 0 0 0.691,-0.345 2.721,2.721 0 0 0 0.464,-0.408 c 0.122,-0.138 0.226,-0.253 0.308,-0.346 z"
           transform="translate(-75.683,-64.975)"
           fill="#0f2837" />
        <path
           d="m 154.7,122.166 h 1.131 v 3.427 a 1.755,1.755 0 0 0 0.338,1.2 1.266,1.266 0 0 0 0.979,0.37 1.5,1.5 0 0 0 0.811,-0.2 1.618,1.618 0 0 0 0.522,-0.521 2.142,2.142 0 0 0 0.282,-0.728 4.269,4.269 0 0 0 0.081,-0.835 v -2.712 h 1.131 v 5.48 c 0,0.122 0,0.241 0.013,0.359 H 158.9 l -0.038,-0.867 a 4.22,4.22 0 0 1 -0.276,0.327 1.9,1.9 0 0 1 -0.4,0.32 2.508,2.508 0 0 1 -0.553,0.245 2.342,2.342 0 0 1 -0.714,0.1 2.048,2.048 0 0 1 -1.683,-0.659 2.756,2.756 0 0 1 -0.541,-1.8 z"
           transform="translate(-86.695,-68.465)"
           fill="#0f2837" />
        <rect
           width="1.131"
           height="8.375"
           transform="translate(74.832,51.165)"
           fill="#0f2837"
           x="0"
           y="0" />
        <path
           d="m 176.12,120.674 h -1.054 v -0.942 h 1.054 v -1.909 h 1.129 v 1.909 h 1.708 v 0.942 h -1.708 v 2.875 a 1.562,1.562 0 0 0 0.22,0.967 0.765,0.765 0 0 0 0.622,0.263 1.265,1.265 0 0 0 0.539,-0.1 1.677,1.677 0 0 0 0.428,-0.3 l 0.515,0.691 a 2.161,2.161 0 0 1 -1.657,0.666 1.7,1.7 0 0 1 -1.362,-0.5 2.358,2.358 0 0 1 -0.434,-1.57 z"
           transform="translate(-98.111,-66.031)"
           fill="#0f2837" />
        <path
           d="m 186.916,122.166 h 1.131 v 3.427 a 1.755,1.755 0 0 0 0.338,1.2 1.266,1.266 0 0 0 0.979,0.37 1.5,1.5 0 0 0 0.81,-0.2 1.614,1.614 0 0 0 0.522,-0.521 2.151,2.151 0 0 0 0.283,-0.728 4.3,4.3 0 0 0 0.081,-0.835 v -2.712 h 1.131 v 5.48 c 0,0.122 0,0.241 0.013,0.359 h -1.08 l -0.038,-0.867 a 4.219,4.219 0 0 1 -0.276,0.327 1.9,1.9 0 0 1 -0.4,0.32 2.508,2.508 0 0 1 -0.553,0.245 2.34,2.34 0 0 1 -0.714,0.1 2.048,2.048 0 0 1 -1.683,-0.659 2.756,2.756 0 0 1 -0.541,-1.8 z"
           transform="translate(-104.752,-68.465)"
           fill="#0f2837" />
        <path
           d="m 202.467,127.892 v -5.474 c 0,-0.075 0,-0.2 -0.013,-0.364 h 1.08 l 0.039,0.942 a 3.03,3.03 0 0 1 0.263,-0.333 1.99,1.99 0 0 1 0.4,-0.333 2.5,2.5 0 0 1 0.541,-0.257 2.15,2.15 0 0 1 0.708,-0.107 2.208,2.208 0 0 1 0.346,0.025 1.68,1.68 0 0 1 0.3,0.076 l -0.252,1.054 a 1.8,1.8 0 0 0 -1.248,0.05 1.6,1.6 0 0 0 -0.533,0.384 1.855,1.855 0 0 0 -0.49,1.262 v 3.076 z"
           transform="translate(-113.46,-68.353)"
           fill="#0f2837" />
        <path
           d="m 217.124,126.925 a 3.519,3.519 0 0 1 -0.3,0.29 2.577,2.577 0 0 1 -0.522,0.339 4.034,4.034 0 0 1 -0.753,0.282 3.754,3.754 0 0 1 -0.986,0.119 3.309,3.309 0 0 1 -1.242,-0.226 2.746,2.746 0 0 1 -0.968,-0.64 2.854,2.854 0 0 1 -0.62,-0.992 3.567,3.567 0 0 1 -0.221,-1.281 3.327,3.327 0 0 1 0.214,-1.2 2.846,2.846 0 0 1 2.7,-1.852 2.709,2.709 0 0 1 1.294,0.289 2.564,2.564 0 0 1 0.885,0.766 3.3,3.3 0 0 1 0.509,1.093 4.986,4.986 0 0 1 0.163,1.281 h -4.608 a 1.78,1.78 0 0 0 0.169,0.716 1.843,1.843 0 0 0 0.421,0.565 2.038,2.038 0 0 0 0.6,0.376 1.872,1.872 0 0 0 0.717,0.138 2.607,2.607 0 0 0 1.217,-0.251 2.479,2.479 0 0 0 0.691,-0.49 z m -1.018,-2.573 a 1.9,1.9 0 0 0 -0.477,-1.155 1.533,1.533 0 0 0 -1.206,-0.478 1.8,1.8 0 0 0 -0.721,0.138 1.751,1.751 0 0 0 -0.547,0.364 1.633,1.633 0 0 0 -0.35,0.52 1.692,1.692 0 0 0 -0.139,0.61 z"
           transform="translate(-118.536,-68.24)"
           fill="#0f2837" />
        <path
           d="m 175.4,8.723 c -0.612,8.358 0.137,16.682 -0.063,25.114 -0.036,1.55 0.156,3.208 0.042,4.765 -0.013,0.184 -0.065,0.324 -0.347,0.328 a 3.746,3.746 0 0 0 -1.153,0 c -0.125,-1.117 -0.077,-1.981 -0.178,-2.942 a 59.873,59.873 0 0 1 -0.114,-6.1 c -0.03,-3.915 -0.362,-7.9 -0.076,-11.812 a 49.787,49.787 0 0 0 0.042,-5.072 37.052,37.052 0 0 1 -0.059,-4.278 7.741,7.741 0 0 1 1.906,-0.011"
           transform="translate(-97.175,-4.859)"
           fill="#eb5a3c" />
        <path
           d="m 8.907,3.392 c 0.684,0.067 0.984,0.271 1.037,1.037 0.079,1.146 -0.087,1.774 0.035,2.9 0.407,3.74 -0.466,7.53 -0.075,11.271 0.207,1.978 0.008,3.756 0.079,5.743 0.1,2.952 -0.029,6.3 -0.1,9.768 H 0.674 a 8.89,8.89 0 0 1 -0.165,-3.36 9.264,9.264 0 0 0 0.077,-1.593 c -0.02,-2.176 0.116,-4.114 0.1,-6.289 A 24.869,24.869 0 0 0 0.453,19.044 C 0.268,17.927 0.553,15.973 0.389,14.854 0.176,13.443 0.065,5.052 0.138,3.444 c 0,0 7.686,-0.158 8.768,-0.052"
           transform="translate(-0.065,-1.88)"
           fill="#eb5a3c" />
        <path
           d="m 57.952,7.848 c -0.528,-0.2 -0.449,0.427 -0.442,0.757 0.006,0.3 0,0.494 -0.007,0.9 -0.011,0.808 0.058,3.013 0.067,3.808 0.016,1.338 0.1,2.506 0.077,3.561 -0.044,1.985 -0.053,3.97 0.028,5.954 0.2,4.94 -0.036,9.891 0.112,14.8 0.013,0.427 0.281,0.546 0.67,0.645 l 0.571,0.095 c -0.019,-4.206 0.314,-8.615 0.047,-12.81 -0.111,-1.749 -0.045,-3.5 -0.05,-5.249 0,-1.683 -0.014,-3.365 0.018,-5.048 0.018,-1.02 0.008,-2.041 -0.025,-3.06 -0.04,-1.265 0.028,-3.7 -0.313,-4.034 C 58.499,7.962 58.3,7.975 57.951,7.845"
           transform="translate(-32.225,-4.377)"
           fill="#6e1946" />
        <path
           d="m 36.484,30.59 c 0.56,-0.013 0.451,-0.428 0.446,-0.761 0,-0.306 0.069,-0.5 0.076,-0.908 0.015,-0.814 -0.043,-3.038 -0.048,-3.84 -0.009,-1.349 -0.087,-2.528 -0.058,-3.591 0.055,-2 0.074,-4 0,-6 C 36.722,10.508 36.987,5.517 36.865,0.566 36.854,0.136 36.571,0.115 36.088,0.099 L 35.42,0.13 c 0,4.241 0.044,8.753 0.1,13.268 0.023,1.768 0,3.143 0,4.911 0,1.7 0.033,3.05 0.029,4.747 0,0.9 -0.041,1.891 -0.051,3.139 -0.011,1.276 -0.072,3.686 0.227,4.069 a 0.794,0.794 0 0 0 0.753,0.329"
           transform="translate(-19.852,-0.054)"
           fill="#91b9b4" />
        <path
           d="m 64.242,36.429 c -0.511,-0.065 -0.581,-0.295 -0.564,-0.881 0.051,-1.734 -0.061,-5.438 -0.244,-7.707 a 30.136,30.136 0 0 1 0.137,-6.18 32.586,32.586 0 0 0 -0.079,-4.194 c -0.011,-2.291 0.13,-4.085 0.12,-5.63 C 63.605,10.884 63.576,9.932 63.531,8.98 63.489,8.092 63.501,6.128 63.508,5.911 a 3.374,3.374 0 0 1 0.813,-0.024 2.818,2.818 0 0 1 1.079,0.28 23.836,23.836 0 0 1 0.149,3.891 c 0,0.628 -0.042,3.223 0,3.847 0.069,1.037 0.032,2.084 0.039,3.127 0.009,1.328 0.089,2.654 0.086,3.982 0,1.685 -0.142,3.362 -0.182,5.046 -0.076,3.1 0.316,7.11 0.283,9.7 -0.007,0.516 0.053,0.794 -0.5,0.794 0,0 -0.522,-0.064 -1.033,-0.129"
           transform="translate(-35.495,-3.292)"
           fill="#eb5a3c" />
        <path
           d="m 167.027,33.505 c 0.1,-1.288 -0.173,-3.281 -0.175,-4.316 0,-0.607 -0.071,-3.119 -0.032,-3.724 0.064,-1 0.017,-2.017 0.016,-3.027 0,-1.285 0.072,-2.569 0.058,-3.855 -0.018,-1.631 -0.176,-3.253 -0.233,-4.883 -0.119,-3.391 0.381,-7.9 0.174,-10.294 A 13.429,13.429 0 0 0 163.786,3.2 36.619,36.619 0 0 0 163.611,9.288 c 0.023,1.5 -0.11,3.233 -0.08,5.45 0.023,1.686 0.454,3.7 0.279,5.063 a 26.85,26.85 0 0 0 -0.094,5.984 c 0.274,2.84 0.174,7.5 0.21,7.562 z"
           transform="translate(-91.643,-1.79)"
           fill="#b41932" />
        <path
           d="m 191.449,33.32 c 0.136,-3.507 0.117,-5.631 0.175,-8.661 0.04,-2.137 -0.3,-4.848 -0.259,-7.1 a 71.687,71.687 0 0 0 -0.207,-9.38 c -0.074,-0.864 0.05,-2.491 0.018,-3.357 -0.022,-0.58 -0.044,-1.328 -0.065,-1.909 a 14.44,14.44 0 0 0 5.027,0.147 c 3.5,-0.735 9.291,0.022 9.291,0.022 a 5.88,5.88 0 0 1 0.382,2.294 37.969,37.969 0 0 0 -0.03,4.172 c 0.083,2.386 -0.363,4.495 -0.363,7.866 0,2.214 0.333,3.67 0.409,5.145 0.078,1.517 -0.186,2.79 -0.088,5.2 0.061,1.484 0.027,5.374 0.051,5.731 0,0 -10.426,0.06 -12.65,-0.206 a 4.225,4.225 0 0 0 -1.691,0.038"
           transform="translate(-107.102,-1.536)"
           fill="#6e1946" />
        <path
           d="m 145.974,0.149 c 0.058,5.24 0.1,11.05 0.363,15.783 0.086,1.578 0.04,3.557 0.1,5.357 0.028,0.8 -0.111,2.4 -0.175,3.466 -0.051,0.862 -0.029,1.727 -0.008,2.59 a 22.708,22.708 0 0 1 -0.038,2.87 5.531,5.531 0 0 0 -1.7,0 7.048,7.048 0 0 1 -0.054,-2.093 c 0.109,-6.288 -0.328,-10.881 -0.225,-16.671 0.034,-1.88 -0.027,-4.447 -0.175,-6.321 a 26.437,26.437 0 0 1 0.127,-5.062 14.093,14.093 0 0 1 1.78,0.081"
           transform="translate(-80.701,-0.037)"
           fill="#fac39b" />
        <path
           d="m 183.632,0.541 c 0.162,2.7 0.036,4.483 0.087,6.808 0.046,2.041 0.272,3.782 0.148,6.125 -0.107,2.022 0.1,4.049 0.143,6.075 q 0.063,2.957 0.1,5.914 c 0.035,1.527 0.069,2.909 0.071,4.438 0,0.256 -0.03,0.8 -0.028,1.059 a 4.475,4.475 0 0 0 -1.062,-0.055 10.215,10.215 0 0 1 -2.732,-0.113 c -0.326,-0.074 -0.052,-5.4 -0.044,-5.893 q 0.051,-3 0.033,-6 c -0.01,-2.026 -0.2,-4.176 -0.238,-6.2 -0.039,-2.047 0.073,-3.969 0.019,-6.015 -0.054,-2.065 -0.115,-3.823 -0.169,-5.888 -0.011,-0.421 0.385,-0.64 1.051,-0.458 0.886,0.243 1.814,-0.047 2.619,0.209"
           transform="translate(-100.855,-0.15)"
           fill="#ff9619" />
        <path
           d="m 27.384,6.529 a 1.345,1.345 0 0 1 1.087,1.358 c 0.017,0.989 0,1.867 -0.026,2.727 -0.026,0.963 -0.055,1.9 -0.043,2.951 0.052,4.275 0.236,8.359 0.045,12.787 -0.162,3.751 0.184,7.411 0.144,10.849 -1.142,-0.065 -2.494,-0.167 -3.6,-0.22 0.312,-6.345 0.113,-12.353 0.04,-18.957 -0.041,-3.715 0.571,-6.613 0.05,-11.561 a 9.535,9.535 0 0 1 2.3,0.065"
           transform="translate(-14.007,-3.598)"
           fill="#6e1946" />
        <path
           d="m 102.159,19.247 c -0.079,-2.26 -0.063,-6.534 0.108,-8.8 0.191,-2.525 -0.434,-6.349 -1.83,-6.265 a 36.862,36.862 0 0 0 -3.769,0.131 c -0.979,0.05 -2.23,0.055 -3.206,0.139 a 29.594,29.594 0 0 1 -3.54,-0.074 c -2.1,0 -3.909,0.17 -6.006,0.173 -2.032,0 -4.3,-0.052 -6.322,-0.205 a 59.483,59.483 0 0 0 -6.082,-0.37 c -0.286,0.008 -0.449,1.291 -0.506,2.863 -0.054,1.516 -0.153,4.8 -0.027,6.369 a 4.536,4.536 0 0 1 3.226,-1.681 12.245,12.245 0 0 1 2.964,0.018 A 7.358,7.358 0 0 0 75.912,10.37 2.564,2.564 0 0 0 74.748,9.754 C 74.211,9.675 73.655,9.726 73.112,9.698 A 2.969,2.969 0 0 1 75.9,8.711 c 0.914,0.126 2.447,1.716 3,1.281 0.615,-0.482 0.373,-2.377 1.187,-2.583 0.662,-0.167 1.1,2.357 1.419,2.914 a 4.648,4.648 0 0 1 3.056,-1.771 c 0.627,-0.073 2.556,0.157 2.817,1.079 a 4.13,4.13 0 0 0 -3.984,1.76 6.1,6.1 0 0 1 6.189,0.837 5.874,5.874 0 0 1 1.178,1.272 1.685,1.685 0 0 1 0.422,1.349 c -0.8,-0.161 -1.547,-1.54 -2.935,-1.967 a 6.088,6.088 0 0 0 -3.57,0.067 c 2.638,0.427 6.28,3.936 5.022,6.809 -0.407,0.929 -0.52,0.308 -0.665,-0.472 A 4.45,4.45 0 0 0 88.163,17.227 11.026,11.026 0 0 0 86.89,15.78 4.5,4.5 0 0 0 84.568,14.837 c 1.7,0.477 2.789,3.856 2.935,4.217 a 8.023,8.023 0 0 1 0.371,2.808 c 0.013,0.537 0.057,2.4 -0.624,2.578 0.01,0 0.112,-4.512 -3.082,-7.095 a 8.807,8.807 0 0 1 0.8,4.882 6.157,6.157 0 0 1 -0.6,2.483 c -0.087,0.182 -0.425,1.011 -0.558,1.041 -0.426,0.1 -0.2,-2.526 -0.264,-2.989 -0.079,-0.573 -1.113,-4.447 -2.2,-3.5 -0.551,0.483 -0.271,2.662 -0.2,3.63 0.083,1.191 0.226,2.928 0.247,4.121 a 54.827,54.827 0 0 0 0.432,6.7 c 2.839,-1.529 15.333,-7.93 17.117,-2.65 0.006,0.167 -0.1,0.049 -0.1,0.049 v 0 C 97.62,29.284 94.287,30.226 92.62,30.74 a 42.763,42.763 0 0 0 -8.5,3.9 c 4.42,0.011 11.231,0 16.278,0 a 2.052,2.052 0 0 0 2.052,-2.123 c -0.029,-0.854 -0.051,-1.875 -0.051,-2.986 0,-1.243 0.065,-2.6 0.1,-3.84 0.068,-2.484 -0.258,-3.958 -0.345,-6.442 m -24.79,2.6 c -0.176,0.642 -0.392,1.734 -0.424,2.013 -0.032,0.279 -0.261,1.822 -0.261,1.822 a 0.564,0.564 0 0 1 -0.206,-0.284 9.82,9.82 0 0 1 -0.5,-3.685 c 0.217,-3.542 1.478,-4.483 1.484,-4.473 -0.568,-0.325 -1.71,1.009 -2.308,1.85 -0.8,1.124 -0.662,1.9 -0.764,3.644 -0.429,-0.087 -0.854,-0.8 -0.882,-1.332 a 7.939,7.939 0 0 1 2.4,-6.315 6.392,6.392 0 0 0 -1.82,0.315 4.6,4.6 0 0 0 -2.4,2.259 c -1.121,2.182 -0.406,4.779 -0.562,7.161 -0.091,1.374 0.111,2.727 0.1,4.1 -0.01,1.037 -0.272,1.233 0.764,1.326 a 10.176,10.176 0 0 1 1.223,0.188 11.585,11.585 0 0 1 6.122,3.438 c 0.274,-3.179 0.311,-6.109 0.311,-9.3 0,-1.262 0.208,-3.964 -0.633,-5.043 -0.841,-1.079 -1.443,1.6 -1.641,2.315 m -5.992,9.282 c -0.055,1.233 0.018,2.23 0.04,3.668 a 20.871,20.871 0 0 1 3.149,0.1 c 1.164,0.072 2.4,-0.055 3.565,0.1 -1.781,-1.931 -4.054,-3.631 -6.754,-3.867 M 73.368,14.088 A 13.908,13.908 0 0 1 75.8,12.9 4.546,4.546 0 0 0 71.839,13.246 c -1.1,0.7 -0.731,2.625 -0.874,3.861 a 7.916,7.916 0 0 1 2.4,-3.023"
           transform="translate(-39.744,-2.222)"
           fill="#0f2837" />
        <path
           d="m 155.055,5.217 a 0.338,0.338 0 0 1 0.292,0.327 c 0.083,3.437 0.158,6.535 0.38,10.086 a 30.374,30.374 0 0 1 -0.045,5.144 c -0.27,2.177 0.285,3.943 0.131,6.132 -0.2,2.888 0.223,5.26 0.059,8.15 l -3.588,0.079 c -0.3,0.01 -0.564,-0.27 -0.522,-0.961 0.042,-0.691 -0.018,-3.666 -0.018,-5.9 a 61.942,61.942 0 0 0 0.049,-6.795 c -0.122,-1.227 0.17,-2.531 0.1,-3.761 -0.129,-2.23 -0.2,-4.177 -0.247,-6.41 -0.028,-1.318 0,-3.344 -0.039,-4.639 -0.029,-0.9 0.167,-1.565 0.666,-1.79 0.571,-0.256 2.135,0.25 2.783,0.338"
           transform="translate(-84.962,-2.695)"
           fill="#91b9b4" />
        <path
           d="m 41.446,29.669 c -0.036,0.834 -0.053,1.12 -0.053,1.435 0,0.209 0.186,0.246 0.355,0.339 0.113,0.062 1.079,0.265 1.394,0.332 a 4.779,4.779 0 0 0 0.945,0.1 c 0.93,-0.016 1.85,0.305 2.777,0.218 a 0.2,0.2 0 0 0 0.087,-0.03 0.809,0.809 0 0 0 0.408,-0.69 c 0.107,-0.789 -0.109,-1.478 0.012,-2.916 0.121,-1.438 0.014,-5.333 0.022,-6.268 0.058,-7.094 -0.345,-7.211 -0.165,-12.686 a 26.165,26.165 0 0 0 -0.2,-4.595 13.141,13.141 0 0 1 -0.18,-2.825 0.54,0.54 0 0 0 -0.5,-0.646 c -1.537,-0.08 -4.765,0.166 -4.765,0.166 a 7.9,7.9 0 0 0 -0.166,2.356 c 0.031,0.669 -0.1,1.771 -0.1,2.441 0,0.756 -0.051,1.508 -0.017,2.263 0.092,2.024 0.147,4.051 0.085,6.076 -0.156,5.13 0.295,8.106 0.1,13.148 z"
           transform="translate(-23.143,-0.795)"
           fill="#ff9619" />
      </g>
    </g>
  </g>
</svg>
