<?xml version="1.0" encoding="UTF-8"?>
<svg xmlns="http://www.w3.org/2000/svg" width="1395.74" height="398.81" viewBox="0 0 1395.74 398.81">
  <g id="herald-investments-logo" transform="translate(-262.11 -330.38)">
    <path id="Path_1" data-name="Path 1" d="M262.13,537.76V333.18h35.59V537.76Zm163.95,0V449.2H295.02V417.53H426.08V333.18h35.59V537.76Z" fill="#1a1a1a"></path>
    <path id="Path_2" data-name="Path 2" d="M496.14,536.92V333.18H678.02v35.59H531.45V501.33H678.3v35.59H496.14Zm32.89-88.56V418.37H670.45v29.99Z" fill="#1a1a1a"></path>
    <path id="Path_3" data-name="Path 3" d="M897.18,536.92l-51.57-56.61H740.9V448.92H854.3c25.5,0,38.95-14.57,38.95-40.92s-14.57-39.23-38.95-39.23H743.32V536.92H708.01V333.18H854.3c46.52,0,73.99,28.87,73.99,74.27,0,33.63-15.69,57.45-42.04,67.54l61.37,61.93Z" fill="#1a1a1a"></path>
    <path id="Path_4" data-name="Path 4" d="M1177.71,536.92l-30.55-51.28h-96.41l16.81-28.87h62.49l-45.4-76.23L992.17,536.92H951.53l117.14-195.05c4.2-7.01,9.53-11.49,17.38-11.49s12.89,4.48,17.09,11.49l117.43,195.05h-42.88Z" fill="#1a1a1a"></path>
    <path id="Path_5" data-name="Path 5" d="M1241.61,536.92V333.18h35.59V501.33h137.04v35.59Z" fill="#1a1a1a"></path>
    <path id="Path_6" data-name="Path 6" d="M1438.91,536.92V333.18H1556.9c57.45,0,99.21,40.64,99.21,99.77s-41.76,103.97-99.21,103.97Zm117.99-35.59c36.71,0,63.62-28.31,63.62-66.7s-26.9-65.86-63.62-65.86h-82.67V501.33h82.67Z" fill="#1a1a1a"></path>
    <rect id="Rectangle_1" data-name="Rectangle 1" width="1395.74" height="147.13" transform="translate(262.11 582.06)" fill="#3ca7df"></rect>
    <path id="Path_7" data-name="Path 7" d="M336.79,619.48v72.29H326.41V619.48Z" fill="#e5ffe5"></path>
    <path id="Path_8" data-name="Path 8" d="M471.5,619.48v72.29H454.58l-60.76-62.81v62.81H383.44V619.48h17.05l60.63,62.68V619.48H471.5Z" fill="#e5ffe5"></path>
    <path id="Path_9" data-name="Path 9" d="M604.68,619.48l-40.76,72.29H551.49l-41.02-72.29H524.7l32.69,59.35,32.94-59.35h14.36Z" fill="#e5ffe5"></path>
    <path id="Path_10" data-name="Path 10" d="M714.91,680.36v11.41h-71.4V619.48h70.88v11.28h-60.5v18.33H711.7v10.9H653.89v20.38H714.9Z" fill="#e5ffe5"></path>
    <path id="Path_11" data-name="Path 11" d="M836.29,669.34v2.43q0,8.715-3.01,13.01t-10.64,6.09q-7.62,1.8-23.14,1.79h-3.33q-9.735,0-15.83-.26a67.518,67.518,0,0,1-10.96-1.28,29.191,29.191,0,0,1-7.31-2.31,9.843,9.843,0,0,1-3.97-3.97,15.107,15.107,0,0,1-1.92-5.7,66.946,66.946,0,0,1-.38-8.14v-2.31h10.51c0,4.1.64,6.97,1.92,8.59s3.82,2.74,7.63,3.33,10.4.9,19.8.9h3.08a113.984,113.984,0,0,0,17.5-.96q5.58-.96,7.63-3.4t2.05-7.56q0-3.975-1.86-5.7c-1.24-1.15-3.89-1.99-7.95-2.5a176.932,176.932,0,0,0-19.68-.77q-10.89,0-17.69-.64a74.234,74.234,0,0,1-11.22-1.79,12.164,12.164,0,0,1-6.54-3.72,13.553,13.553,0,0,1-2.82-5.58,37.948,37.948,0,0,1-.71-8.27v-2.44q0-11.655,6.99-15.64t28.01-3.97h2.95q17.175,0,25.12,1.86t10.64,6.02q2.685,4.17,2.69,13.27v2.18H823.6c0-3.59-.6-6.19-1.79-7.82s-3.63-2.78-7.31-3.46-9.61-1.03-17.82-1.03h-2.44q-16.155,0-21.15,1.86t-5.26,7.88q.255,4.23,2.12,6.15t8.01,2.82a148.131,148.131,0,0,0,19.35.9q17.175,0,25.31,1.79t10.9,5.77q2.76,3.975,2.76,12.56Z" fill="#e5ffe5"></path>
    <path id="Path_12" data-name="Path 12" d="M919.86,630.76v61.01H909.48V630.76H874.23V619.48h80.88v11.28Z" fill="#e5ffe5"></path>
    <path id="Path_13" data-name="Path 13" d="M1104.95,619.48v72.29H1094.7V629.73l-38.97,62.04h-9.87l-40.76-62.04v62.04H994.85V619.48h15.89l39.73,60.88,38.45-60.88h16.02Z" fill="#e5ffe5"></path>
    <path id="Path_14" data-name="Path 14" d="M1223.77,680.36v11.41h-71.39V619.48h70.88v11.28h-60.5v18.33h57.81v10.9h-57.81v20.38h61.01Z" fill="#e5ffe5"></path>
    <path id="Path_15" data-name="Path 15" d="M1354.13,619.48v72.29h-16.92l-60.76-62.81v62.81h-10.38V619.48h17.05l60.63,62.68V619.48Z" fill="#e5ffe5"></path>
    <path id="Path_16" data-name="Path 16" d="M1439.62,630.76v61.01h-10.38V630.76h-35.25V619.48h80.88v11.28Z" fill="#e5ffe5"></path>
    <path id="Path_17" data-name="Path 17" d="M1593.56,669.34v2.43q0,8.715-3.01,13.01t-10.64,6.09q-7.62,1.8-23.14,1.79h-3.33q-9.75,0-15.83-.26a67.517,67.517,0,0,1-10.96-1.28,29.192,29.192,0,0,1-7.31-2.31,9.844,9.844,0,0,1-3.97-3.97,15.107,15.107,0,0,1-1.92-5.7,66.946,66.946,0,0,1-.38-8.14v-2.31h10.51c0,4.1.64,6.97,1.92,8.59s3.82,2.74,7.63,3.33,10.4.9,19.8.9h3.08a113.984,113.984,0,0,0,17.5-.96q5.58-.96,7.63-3.4t2.05-7.56q0-3.975-1.86-5.7c-1.24-1.15-3.89-1.99-7.95-2.5a176.846,176.846,0,0,0-19.67-.77q-10.89,0-17.69-.64a74.234,74.234,0,0,1-11.22-1.79,12.165,12.165,0,0,1-6.54-3.72,13.551,13.551,0,0,1-2.82-5.58,38.051,38.051,0,0,1-.7-8.27v-2.44q0-11.655,6.99-15.64t28.01-3.97h2.95q17.175,0,25.12,1.86t10.64,6.02q2.685,4.17,2.69,13.27v2.18h-10.25c0-3.59-.6-6.19-1.79-7.82s-3.63-2.78-7.31-3.46-9.61-1.03-17.82-1.03h-2.44q-16.155,0-21.15,1.86t-5.25,7.88q.255,4.23,2.12,6.15t8.01,2.82a148.131,148.131,0,0,0,19.35.9q17.175,0,25.32,1.79t10.9,5.77q2.76,3.975,2.76,12.56Z" fill="#e5ffe5"></path>
  </g>
</svg>
